<svg width="145" height="148" viewBox="0 0 145 148" fill="none" xmlns="http://www.w3.org/2000/svg">
<g filter="url(#filter0_d_120_8)">
<path d="M72.5 0L88.5527 53.2057L140.501 53.2057L98.4739 86.0886L114.527 139.294L72.5 106.411L30.4734 139.294L46.5261 86.0886L4.49946 53.2057L56.4473 53.2057L72.5 0Z" fill="#7A3131"/>
<path d="M72.5 1.73099L88.0741 53.3501L88.1813 53.7057H88.5527L139.05 53.7057L98.1658 85.6948L97.8964 85.9056L97.9952 86.233L113.592 137.928L72.8081 106.018L72.5 105.777L72.1919 106.018L31.4077 137.928L47.0048 86.233L47.1036 85.9056L46.8342 85.6948L5.94989 53.7057L56.4473 53.7057H56.8187L56.9259 53.3501L72.5 1.73099Z" stroke="black"/>
</g>
<defs>
<filter id="filter0_d_120_8" x="0.499512" y="0" width="144.001" height="147.294" filterUnits="userSpaceOnUse" color-interpolation-filters="sRGB">
<feFlood flood-opacity="0" result="BackgroundImageFix"/>
<feColorMatrix in="SourceAlpha" type="matrix" values="0 0 0 0 0 0 0 0 0 0 0 0 0 0 0 0 0 0 127 0" result="hardAlpha"/>
<feOffset dy="4"/>
<feGaussianBlur stdDeviation="2"/>
<feComposite in2="hardAlpha" operator="out"/>
<feColorMatrix type="matrix" values="0 0 0 0 0 0 0 0 0 0 0 0 0 0 0 0 0 0 0.25 0"/>
<feBlend mode="normal" in2="BackgroundImageFix" result="effect1_dropShadow_120_8"/>
<feBlend mode="normal" in="SourceGraphic" in2="effect1_dropShadow_120_8" result="shape"/>
</filter>
</defs>
</svg>
